<?xml version="1.0" encoding="UTF-8" standalone="no"?>
<!DOCTYPE svg PUBLIC "-//W3C//DTD SVG 1.1//EN" "http://www.w3.org/Graphics/SVG/1.1/DTD/svg11.dtd">
<svg width="1000px" height="1000px" version="1.1" xmlns="http://www.w3.org/2000/svg" xmlns:xlink="http://www.w3.org/1999/xlink" xml:space="preserve" xmlns:serif="http://www.serif.com/" style="fill-rule:evenodd;clip-rule:evenodd;stroke-linejoin:round;stroke-miterlimit:2;">
    <g transform="matrix(1,0,0,1,-2192,-2330.64)">
        <g id="Local-SEO" serif:id="Local SEO" transform="matrix(0.986219,0,0,1,1110.43,2330.64)">
            <rect x="1096.68" y="0" width="1013.97" height="1000" style="fill:none;"/>
            <g transform="matrix(2.01964,0,0,2.01964,-1118.29,28.5822)">
                <g transform="matrix(1.01397,0,0,1,1096.68,0)">
                    <path d="M460.511,373.105L308.511,399.104L167.511,379.105L34.693,399.104L76.511,260.004L174.511,240.004L294.51,260.004L405.511,243.004L460.511,373.105Z" style="fill:rgb(247,237,225);fill-rule:nonzero;"/>
                </g>
                <g transform="matrix(1.01397,0,0,1,1096.68,0)">
                    <path d="M294.51,260.004L308.511,399.104L167.511,379.105L174.658,248.139L294.51,260.004Z" style="fill:rgb(229,214,198);fill-rule:nonzero;"/>
                </g>
                <g transform="matrix(1.01397,0,0,1,1096.68,0)">
                    <path d="M174.511,240.004L76.511,260.004L34.693,399.104L167.511,379.104L308.511,399.104L460.511,373.104L405.511,243.004L294.51,260.004L174.511,240.004ZM174.658,248.139L293.196,267.895L294.457,268.105L295.722,267.911L400.567,251.855L449.212,366.921L308.395,391.008L168.635,371.184L167.476,371.02L166.32,371.194L45.991,389.313L82.795,266.886L174.658,248.139Z" style="fill:white;fill-rule:nonzero;"/>
                </g>
                <g transform="matrix(1.01397,0,0,1,1096.68,0)">
                    <path d="M174.511,240.004L174.658,248.139L295.345,268.296L294.51,260.004L174.511,240.004Z" style="fill:rgb(237,236,235);fill-rule:nonzero;"/>
                </g>
                <g transform="matrix(1.01397,0,0,1,1096.68,0)">
                    <path d="M307.704,391.085L308.511,399.104L167.511,379.104L167.511,371.004L307.704,391.085Z" style="fill:rgb(237,236,235);fill-rule:nonzero;"/>
                </g>
                <g transform="matrix(1.01397,0,0,1,1096.68,0)">
                    <path d="M295.033,110.594C295.033,134.268 252.169,188.628 252.169,188.628C252.169,188.628 209.304,134.268 209.304,110.594C209.304,86.921 228.495,67.729 252.169,67.729C275.843,67.729 295.033,86.921 295.033,110.594Z" style="fill:rgb(254,97,37);fill-rule:nonzero;"/>
                </g>
                <g transform="matrix(1.01397,0,0,1,1096.68,0)">
                    <path d="M295.033,110.594C295.033,134.268 252.169,188.628 252.169,188.628C252.169,188.628 209.304,134.268 209.304,110.594C209.304,86.921 228.495,67.729 252.169,67.729C275.843,67.729 295.033,86.921 295.033,110.594Z" style="fill:rgb(247,104,97);fill-rule:nonzero;"/>
                </g>
                <g transform="matrix(1.01397,0,0,1,1096.68,0)">
                    <path d="M252.169,67.729L252.169,188.628C252.169,188.628 295.033,134.268 295.033,110.594C295.033,86.921 275.843,67.729 252.169,67.729Z" style="fill:rgb(244,56,37);fill-rule:nonzero;"/>
                </g>
                <g transform="matrix(1.01397,0,0,1,1096.68,0)">
                    <path d="M272.041,108.307C272.041,119.282 263.144,128.179 252.169,128.179C241.194,128.179 232.297,119.282 232.297,108.307C232.297,97.332 241.194,88.435 252.169,88.435C263.144,88.435 272.041,97.332 272.041,108.307Z" style="fill:rgb(254,254,254);fill-rule:nonzero;"/>
                </g>
                <g transform="matrix(1.01397,0,0,1,1096.68,0)">
                    <path d="M272.041,108.307C272.041,119.282 263.144,128.179 252.169,128.179C241.194,128.179 232.297,119.282 232.297,108.307C232.297,97.332 241.194,88.435 252.169,88.435C263.144,88.435 272.041,97.332 272.041,108.307Z" style="fill:rgb(254,254,254);fill-rule:nonzero;"/>
                </g>
                <g transform="matrix(1.01397,0,0,1,1096.68,0)">
                    <path d="M252.169,88.435L252.169,128.179C263.144,128.179 272.041,119.282 272.041,108.307C272.041,97.332 263.144,88.435 252.169,88.435Z" style="fill:rgb(207,236,250);fill-rule:nonzero;"/>
                </g>
                <g transform="matrix(1.01397,0,0,1,1096.68,0)">
                    <path d="M65.467,379.627L85.467,328.555L119.468,323.622L113.468,371.004L65.467,379.627Z" style="fill:rgb(242,218,192);fill-rule:nonzero;"/>
                </g>
                <g transform="matrix(1.01397,0,0,1,1096.68,0)">
                    <path d="M124.468,343.555L124.468,366.908L168.177,366.908L169.451,343.555L124.468,343.555Z" style="fill:rgb(242,218,192);fill-rule:nonzero;"/>
                </g>
                <g transform="matrix(1.01397,0,0,1,1096.68,0)">
                    <path d="M169.451,343.555L178.134,344.888L186.801,370.908L168.177,366.908L169.451,343.555Z" style="fill:rgb(229,192,156);fill-rule:nonzero;"/>
                </g>
                <g transform="matrix(1.01397,0,0,1,1096.68,0)">
                    <path d="M65.81,323.562L108.968,316.055L117.968,291.055L72.937,299.766L65.81,323.562Z" style="fill:rgb(242,218,192);fill-rule:nonzero;"/>
                </g>
                <g transform="matrix(1.01397,0,0,1,1096.68,0)">
                    <path d="M117.968,311.43C117.968,311.43 156.468,307.443 167.468,289.43L154.218,270.68L126.718,279.93L117.968,311.43Z" style="fill:rgb(242,218,192);fill-rule:nonzero;"/>
                </g>
                <g transform="matrix(1.01397,0,0,1,1096.68,0)">
                    <path d="M117.968,287.055L121.968,270.305L80.717,275.055L79.467,294.18L117.968,287.055Z" style="fill:rgb(242,218,192);fill-rule:nonzero;"/>
                </g>
                <g transform="matrix(1.01397,0,0,1,1096.68,0)">
                    <path d="M82.967,266.555L136.968,255.805L131.968,264.055L81.717,270.68L82.967,266.555Z" style="fill:rgb(242,218,192);fill-rule:nonzero;"/>
                </g>
                <g transform="matrix(1.01397,0,0,1,1096.68,0)">
                    <path d="M63.134,332.555L75.8,330.221L54.467,387.555L46.467,389.221L63.134,332.555Z" style="fill:rgb(242,218,192);fill-rule:nonzero;"/>
                </g>
                <g transform="matrix(1.01397,0,0,1,1096.68,0)">
                    <path d="M122.451,318.255L124.468,339.221L169.797,337.221L171.779,300.904L122.451,318.255Z" style="fill:rgb(242,218,192);fill-rule:nonzero;"/>
                </g>
                <g transform="matrix(1.01397,0,0,1,1096.68,0)">
                    <path d="M171.779,300.904L193.468,309.555L188.801,343.555L169.797,337.221L171.779,300.904Z" style="fill:rgb(229,192,156);fill-rule:nonzero;"/>
                </g>
                <g transform="matrix(1.01397,0,0,1,1096.68,0)">
                    <path d="M161.801,255.805L172.49,287.871L193.468,295.555L198.801,257.888L174.511,254.149L161.801,255.805Z" style="fill:rgb(229,192,156);fill-rule:nonzero;"/>
                </g>
                <g transform="matrix(1.01397,0,0,1,1096.68,0)">
                    <path d="M174.511,254.149L172.49,287.871L161.801,255.805L174.511,254.149Z" style="fill:rgb(242,218,192);fill-rule:nonzero;"/>
                </g>
                <g transform="matrix(1.01397,0,0,1,1096.68,0)">
                    <path d="M204.738,253.162L204.738,277.555L240.871,274.852L238.011,258.72L204.738,253.162Z" style="fill:rgb(229,192,156);fill-rule:nonzero;"/>
                </g>
                <g transform="matrix(1.01397,0,0,1,1096.68,0)">
                    <path d="M204.737,282.242L195.968,303.055C195.968,303.055 231.274,312.062 240.871,307.308L240.871,295.555L247.602,294.18L247.602,285.555L204.737,282.242Z" style="fill:rgb(229,192,156);fill-rule:nonzero;"/>
                </g>
                <g transform="matrix(1.01397,0,0,1,1096.68,0)">
                    <path d="M198.801,311.43L201.468,343.555L251.468,343.555L251.468,330.221C251.468,330.221 244.967,321.055 244.967,315.555L198.801,311.43Z" style="fill:rgb(229,192,156);fill-rule:nonzero;"/>
                </g>
                <g transform="matrix(1.01397,0,0,1,1096.68,0)">
                    <path d="M198.801,375.485L195.968,357.231L218.468,351.624L244.968,355.231L261.48,384.464L198.801,375.485Z" style="fill:rgb(229,192,156);fill-rule:nonzero;"/>
                </g>
                <g transform="matrix(1.01397,0,0,1,1096.68,0)">
                    <path d="M251.468,265.358L261.48,282.242L296.724,281.994L295.302,267.871L265.087,263.242L251.468,265.358Z" style="fill:rgb(229,192,156);fill-rule:nonzero;"/>
                </g>
                <g transform="matrix(1.01397,0,0,1,1096.68,0)">
                    <path d="M295.302,267.871L296.724,281.994L321.468,277.555L316.634,264.638L295.302,267.871Z" style="fill:rgb(242,218,192);fill-rule:nonzero;"/>
                </g>
                <g transform="matrix(1.01397,0,0,1,1096.68,0)">
                    <path d="M257.538,291.055L256.371,294.18L251.468,307.308L299.686,311.43L297.315,287.871L257.538,291.055Z" style="fill:rgb(229,192,156);fill-rule:nonzero;"/>
                </g>
                <g transform="matrix(1.01397,0,0,1,1096.68,0)">
                    <path d="M297.315,287.871L316.8,282.242L308.511,311.43L299.686,311.43L297.315,287.871Z" style="fill:rgb(242,218,192);fill-rule:nonzero;"/>
                </g>
                <g transform="matrix(1.01397,0,0,1,1096.68,0)">
                    <path d="M251.468,319.555L261.48,347.555L290.467,347.555L280.134,320.062L257.538,316.888L251.468,319.555Z" style="fill:rgb(229,192,156);fill-rule:nonzero;"/>
                </g>
                <g transform="matrix(1.01397,0,0,1,1096.68,0)">
                    <path d="M300.774,322.23L295.303,323.562L303.322,347.555L300.774,322.23Z" style="fill:rgb(229,192,156);fill-rule:nonzero;"/>
                </g>
                <g transform="matrix(1.01397,0,0,1,1096.68,0)">
                    <path d="M300.774,322.23L321.467,316.888L329.467,339.221L303.322,347.555L300.774,322.23Z" style="fill:rgb(242,218,192);fill-rule:nonzero;"/>
                </g>
                <g transform="matrix(1.01397,0,0,1,1096.68,0)">
                    <path d="M316.801,354.189L304.296,357.231L307.704,391.085L344.134,372.638L329.468,357.231L316.801,354.189Z" style="fill:rgb(242,218,192);fill-rule:nonzero;"/>
                </g>
                <g transform="matrix(1.01397,0,0,1,1096.68,0)">
                    <path d="M304.296,357.231L290.467,355.231L267.474,355.231L257.538,368.044C257.538,368.044 274.823,388.552 307.704,391.085L304.296,357.231Z" style="fill:rgb(229,192,156);fill-rule:nonzero;"/>
                </g>
                <g transform="matrix(1.01397,0,0,1,1096.68,0)">
                    <path d="M400.134,253.162L349.468,259.555L329.468,271.01L321.468,294.18L410.801,277.555L400.134,253.162Z" style="fill:rgb(242,218,192);fill-rule:nonzero;"/>
                </g>
                <g transform="matrix(1.01397,0,0,1,1096.68,0)">
                    <path d="M414.134,287.871L386.134,287.871L359.468,300.904L390.801,322.229L428.801,319.555L414.134,287.871Z" style="fill:rgb(242,218,192);fill-rule:nonzero;"/>
                </g>
                <g transform="matrix(1.01397,0,0,1,1096.68,0)">
                    <path d="M324.215,300.904L350.8,295.555L350.8,311.43L359.467,322.23C359.467,322.23 326.963,340.255 324.215,300.904Z" style="fill:rgb(242,218,192);fill-rule:nonzero;"/>
                </g>
                <g transform="matrix(1.01397,0,0,1,1096.68,0)">
                    <path d="M371.049,340.625L364.269,360.126L359.468,379.627L397.468,370.908L402.468,343.555L371.049,340.625Z" style="fill:rgb(242,218,192);fill-rule:nonzero;"/>
                </g>
                <g transform="matrix(1.01397,0,0,1,1096.68,0)">
                    <path d="M433.468,330.221L448.801,364.221L409.474,373.158L405.468,351.624C405.468,351.624 416.134,331.555 433.468,330.221Z" style="fill:rgb(242,218,192);fill-rule:nonzero;"/>
                </g>
                <g transform="matrix(1.01397,0,0,1,1096.68,0)">
                    <path d="M432.19,327.301C406.661,338.389 388.707,337.76 376.801,334.892C371.513,333.618 368.396,332.139 362.517,331.639C344.346,330.093 328.702,340.364 318.134,349.555C313.521,352.113 308.909,354.672 304.296,357.231L303.322,347.555C305.834,346.753 309.555,345.408 313.801,343.221C321.918,339.039 324.098,335.822 329.467,332.221C341.662,324.04 355.354,323.903 361.134,323.845C369.36,323.762 374.144,325.347 379.467,326.349C390.44,328.417 406.596,328.558 428.801,319.555C429.93,322.137 431.06,324.719 432.19,327.301Z" style="fill:rgb(142,220,239);fill-rule:nonzero;"/>
                </g>
                <g transform="matrix(1.01397,0,0,1,1096.68,0)">
                    <path d="M303.323,347.555L304.296,357.231C304.296,357.231 290.482,357.908 267.474,355.231C244.468,352.555 228.134,356.028 218.468,351.624C208.801,347.221 169.797,348.888 169.797,348.888L169.797,337.221C169.797,337.221 210.436,337.555 221.785,343.555C233.134,349.555 286.511,341.888 303.323,347.555Z" style="fill:rgb(104,205,221);fill-rule:nonzero;"/>
                </g>
                <g transform="matrix(1.01397,0,0,1,1096.68,0)">
                    <path d="M169.797,337.221C169.797,337.221 146.801,337.888 129.8,340.888C112.801,343.888 130.968,323.661 124.468,317.545C117.968,311.43 65.81,323.562 65.81,323.562L63.134,332.555C63.134,332.555 107.468,320.888 112.134,325.221C116.801,329.555 102.468,345.361 111.468,351.624C120.468,357.888 169.797,348.888 169.797,348.888L169.797,337.221Z" style="fill:rgb(142,220,239);fill-rule:nonzero;"/>
                </g>
                <g transform="matrix(1.01397,0,0,1,1096.68,0)">
                    <path d="M267.801,348.221C267.801,348.221 253.468,337.555 251.468,316.888C249.468,296.221 258.068,301.039 257.538,287.871C257.008,274.702 247.602,260.322 247.602,260.322L243.779,259.684C243.779,259.684 255.801,279.52 253.468,287.871C251.134,296.221 243.738,314.238 247.602,322.23C251.468,330.221 260.134,348.221 263.134,349.888C266.134,351.555 267.801,348.221 267.801,348.221Z" style="fill:rgb(104,205,221);fill-rule:nonzero;"/>
                </g>
                <g transform="matrix(1.01397,0,0,1,1096.68,0)">
                    <path d="M72.937,299.766C72.937,299.766 113.801,285.854 129.468,287.871C145.134,289.888 171.779,305.05 171.779,305.05L172.316,291.055C172.316,291.055 143.801,280.221 130.134,277.555C116.468,274.888 75.8,289.221 75.8,289.221L72.937,299.766Z" style="fill:rgb(239,202,46);fill-rule:nonzero;"/>
                </g>
                <g transform="matrix(1.01397,0,0,1,1096.68,0)">
                    <path d="M172.316,291.055C172.316,291.055 233.801,317.555 251.467,316.888C269.134,316.221 295.303,267.871 295.303,267.871L296.724,281.994C296.724,281.994 284.801,312.105 267.801,318.33C277.156,324.281 282.098,330.662 284.895,335.486C287.809,340.515 288.556,344.133 292.572,349.796C296.729,355.656 301.419,359.525 304.766,361.892C305.111,366.334 305.455,370.777 305.801,375.221C302.463,372.587 297.418,368.243 292.217,362.055C281.889,349.764 280.974,342.131 272.435,335.266C264.728,329.069 256.432,328.017 250.467,327.055C234.558,324.488 210.493,318.577 171.779,305.05C171.958,300.385 172.137,295.72 172.316,291.055Z" style="fill:rgb(237,160,47);fill-rule:nonzero;"/>
                </g>
                <g transform="matrix(1.01397,0,0,1,1096.68,0)">
                    <path d="M295.302,267.871L303.323,266.655L296.724,281.994L295.302,267.871Z" style="fill:rgb(239,202,46);fill-rule:nonzero;"/>
                </g>
                <g transform="matrix(1.01397,0,0,1,1096.68,0)">
                    <path d="M304.765,361.892C311.343,364.007 326.587,367.803 338.467,359.973C345.452,355.37 348.48,348.352 354.536,334.314C361.633,317.865 359.458,315.398 365.967,302.305C369.376,295.448 374.115,285.915 383.793,276.984C383.793,276.983 386.249,274.718 403.91,261.798L407.939,271.01C401.61,275.414 392.731,282.82 385.217,294.305C381.286,300.313 378.627,306.064 376.801,310.952L422.087,305.05L423.773,308.693L378.134,315.822C375.384,320.225 371.431,327.156 367.839,336.235C365.016,343.366 364.572,346.376 362.217,351.555C359.715,357.059 355.207,364.68 346.467,372.638C350.342,376.019 354.217,379.4 358.092,382.781L339.467,385.055L332.467,379.627C332.467,379.627 309.851,380.515 305.801,375.221L304.765,361.892Z" style="fill:rgb(239,202,46);fill-rule:nonzero;"/>
                </g>
                <g transform="matrix(1.01397,0,0,1,1096.68,0)">
                    <path d="M156.801,287.871C156.801,287.871 172.515,271.39 174.658,248.139L161.801,250.554C161.801,250.554 159.512,274.055 147.115,283.555L156.801,287.871Z" style="fill:rgb(239,202,46);fill-rule:nonzero;"/>
                </g>
                <g transform="matrix(1.01397,0,0,1,1096.68,0)">
                    <path d="M161.801,266.655C161.801,266.655 150.594,261.389 150.468,253.162L148.718,253.162C148.718,253.162 150.806,265.536 160.886,268.296C170.968,271.055 161.801,266.655 161.801,266.655Z" style="fill:rgb(239,202,46);fill-rule:nonzero;"/>
                </g>
                <g transform="matrix(1.01397,0,0,1,1096.68,0)">
                    <path d="M332.565,330.325L326.281,330.325L321.467,316.888L300.774,322.23L299.686,311.43L308.511,311.43L309.987,306.231L328.05,316.681C331.578,323.457 336.959,325.881 342.279,326.286C339.106,327.221 335.811,328.52 332.565,330.325Z" style="fill:rgb(233,214,197);fill-rule:nonzero;"/>
                </g>
                <g transform="matrix(1.01397,0,0,1,1096.68,0)">
                    <path d="M297.563,330.325L283.991,330.325L280.134,320.062L267.802,318.33C272.165,316.732 276.194,313.56 279.773,309.727L299.686,311.43L300.773,322.23L295.303,323.562L297.563,330.325Z" style="fill:rgb(217,195,174);fill-rule:nonzero;"/>
                </g>
                <g transform="matrix(1.01397,0,0,1,1096.68,0)">
                    <path d="M299.686,311.43L279.773,309.727C280.844,308.581 281.875,307.375 282.862,306.135L299.153,306.135L299.686,311.43Z" style="fill:rgb(217,176,138);fill-rule:nonzero;"/>
                </g>
                <g transform="matrix(1.01397,0,0,1,1096.68,0)">
                    <path d="M308.511,311.43L299.686,311.43L299.153,306.135L309.821,306.135L309.987,306.231L308.511,311.43Z" style="fill:rgb(228,198,169);fill-rule:nonzero;"/>
                </g>
                <g transform="matrix(1.01397,0,0,1,1096.68,0)">
                    <path d="M283.991,330.325L281.385,330.325C278.395,326.536 274.098,322.336 267.801,318.33L280.134,320.062L283.991,330.325Z" style="fill:rgb(217,176,138);fill-rule:nonzero;"/>
                </g>
                <g transform="matrix(1.01397,0,0,1,1096.68,0)">
                    <path d="M301.588,330.325L297.563,330.325L295.303,323.562L300.774,322.23L301.588,330.325Z" style="fill:rgb(217,176,138);fill-rule:nonzero;"/>
                </g>
                <g transform="matrix(1.01397,0,0,1,1096.68,0)">
                    <path d="M326.281,330.325L301.588,330.325L300.774,322.23L321.467,316.888L326.281,330.325Z" style="fill:rgb(228,198,169);fill-rule:nonzero;"/>
                </g>
                <g transform="matrix(1.01397,0,0,1,1096.68,0)">
                    <path d="M342.279,326.286C336.959,325.881 331.578,323.457 328.05,316.681L330.925,318.345L331.667,318.773C334.112,319.002 336.269,319.445 337.15,319.954L336.645,319.662C335.639,319.081 337.14,318.609 339.996,318.609C342.853,318.609 345.984,319.081 346.989,319.662L347.494,319.954L347.47,319.954L347.5,325.026C345.818,325.348 344.068,325.759 342.279,326.286Z" style="fill:rgb(228,198,169);fill-rule:nonzero;"/>
                </g>
                <g transform="matrix(1.01397,0,0,1,1096.68,0)">
                    <path d="M255.319,330.325L254.79,330.325C254.428,329.445 254.084,328.533 253.763,327.589C253.967,327.624 254.172,327.66 254.379,327.697L255.319,330.325Z" style="fill:rgb(217,195,174);fill-rule:nonzero;"/>
                </g>
                <g transform="matrix(1.01397,0,0,1,1096.68,0)">
                    <path d="M263.988,330.325L255.319,330.325L254.379,327.697C257.334,328.222 260.617,328.96 263.988,330.325Z" style="fill:rgb(217,176,138);fill-rule:nonzero;"/>
                </g>
                <g transform="matrix(1.01397,0,0,1,1096.68,0)">
                    <path d="M251.554,330.325L251.468,330.325L251.468,330.221C251.468,330.221 250.5,328.856 249.312,326.865C249.509,326.898 249.704,326.93 249.899,326.962C250.423,328.035 250.978,329.165 251.554,330.325ZM199.621,321.311L194.939,319.954L194.434,319.662C193.429,319.081 194.929,318.609 197.786,318.609C198.32,318.609 198.863,318.626 199.401,318.656L199.621,321.311Z" style="fill:rgb(217,195,174);fill-rule:nonzero;"/>
                </g>
                <g transform="matrix(1.01397,0,0,1,1096.68,0)">
                    <path d="M251.468,330.325L226.628,330.325L222.509,327.943L199.621,321.311L199.401,318.656C201.739,318.789 203.962,319.19 204.779,319.662L205.284,319.954C204.406,319.447 205.024,319.006 206.665,318.776L205.918,318.345L203.251,315.408C223.663,321.644 238.363,325.032 249.312,326.865C250.5,328.856 251.468,330.221 251.468,330.221L251.468,330.325Z" style="fill:rgb(217,176,138);fill-rule:nonzero;"/>
                </g>
                <g transform="matrix(1.01397,0,0,1,1096.68,0)">
                    <path d="M251.468,316.888C251.007,312.13 251.109,308.722 251.531,306.135L251.906,306.135L251.468,307.308L266.174,308.565C261.103,313.4 256.005,316.716 251.467,316.888" style="fill:rgb(217,195,174);fill-rule:nonzero;"/>
                </g>
                <g transform="matrix(1.01397,0,0,1,1096.68,0)">
                    <path d="M266.174,308.565L251.468,307.308L251.906,306.135L268.604,306.135C267.797,306.979 266.986,307.792 266.174,308.565Z" style="fill:rgb(217,176,138);fill-rule:nonzero;"/>
                </g>
                <g transform="matrix(1.01397,0,0,1,1096.68,0)">
                    <path d="M246.505,316.563C246.02,316.496 245.521,316.42 245.007,316.335C244.981,316.068 244.967,315.807 244.967,315.555L238.52,314.979C230.442,313.011 220.528,309.755 210.856,306.269C217.714,307.535 225.716,308.693 232.052,308.693C235.742,308.693 238.867,308.3 240.871,307.308L240.871,306.135L247.976,306.135C247.089,309.808 246.478,313.429 246.505,316.563Z" style="fill:rgb(217,195,174);fill-rule:nonzero;"/>
                </g>
                <g transform="matrix(1.01397,0,0,1,1096.68,0)">
                    <path d="M232.052,308.693C225.716,308.693 217.714,307.535 210.856,306.269C210.731,306.224 210.607,306.18 210.482,306.135L240.871,306.135L240.871,307.308C238.867,308.3 235.742,308.693 232.052,308.693Z" style="fill:rgb(217,176,138);fill-rule:nonzero;"/>
                </g>
                <g transform="matrix(1.01397,0,0,1,1096.68,0)">
                    <path d="M245.007,316.335C243.031,316.007 240.852,315.547 238.52,314.979L244.967,315.555C244.967,315.807 244.981,316.068 245.007,316.335Z" style="fill:rgb(217,176,138);fill-rule:nonzero;"/>
                </g>
                <g transform="matrix(1.01397,0,0,1,1096.68,0)">
                    <path d="M351.634,330.325L332.565,330.325C335.811,328.52 339.106,327.221 342.279,326.286C344.068,325.759 345.818,325.348 347.5,325.026L347.516,327.943L351.634,330.325Z" style="fill:rgb(143,200,209);fill-rule:nonzero;"/>
                </g>
                <g transform="matrix(1.01397,0,0,1,1096.68,0)">
                    <path d="M254.79,330.325L251.554,330.325C250.978,329.165 250.423,328.035 249.899,326.962C250.089,326.993 250.279,327.024 250.467,327.055C251.501,327.221 252.605,327.391 253.763,327.589C254.084,328.533 254.428,329.445 254.79,330.325ZM250.788,316.9C249.539,316.9 248.101,316.782 246.505,316.563C246.478,313.429 247.089,309.808 247.976,306.135L251.531,306.135C251.109,308.722 251.007,312.13 251.468,316.888L251.467,316.888C251.247,316.896 251.022,316.9 250.788,316.9Z" style="fill:rgb(111,187,194);fill-rule:nonzero;"/>
                </g>
                <g transform="matrix(1.01397,0,0,1,1096.68,0)">
                    <path d="M281.385,330.325L263.988,330.325C260.617,328.96 257.334,328.222 254.379,327.697C254.172,327.66 253.967,327.624 253.763,327.589C252.605,327.391 251.501,327.221 250.467,327.055C250.279,327.024 250.089,326.993 249.899,326.962C249.704,326.93 249.509,326.898 249.312,326.865C238.363,325.032 223.663,321.644 203.251,315.408L194.826,306.135L210.482,306.135C210.607,306.18 210.731,306.224 210.856,306.269C220.528,309.755 230.442,313.011 238.52,314.979C240.852,315.547 243.031,316.007 245.007,316.335C245.521,316.42 246.02,316.496 246.505,316.563C248.101,316.782 249.539,316.9 250.788,316.9C251.022,316.9 251.247,316.896 251.467,316.888C256.005,316.716 261.103,313.4 266.174,308.565C266.986,307.792 267.797,306.979 268.604,306.135L282.862,306.135C281.875,307.375 280.844,308.581 279.773,309.727C276.194,313.56 272.165,316.732 267.801,318.33C274.098,322.336 278.395,326.536 281.385,330.325Z" style="fill:rgb(224,149,46);fill-rule:nonzero;"/>
                </g>
                <g transform="matrix(1.01397,0,0,1,1096.68,0)">
                    <rect x="189.654" y="214.923" width="125.006" height="107.068" style="fill:rgb(247,170,102);fill-rule:nonzero;"/>
                </g>
                <g transform="matrix(1.01397,0,0,1,1096.68,0)">
                    <rect x="200.365" y="226.239" width="103.583" height="88.719" style="fill:rgb(139,239,239);fill-rule:nonzero;"/>
                </g>
                <g transform="matrix(1.01397,0,0,1,1096.68,0)">
                    <rect x="189.654" y="214.923" width="125.006" height="47.127" style="fill:rgb(234,145,78);fill-rule:nonzero;"/>
                </g>
                <g transform="matrix(1.01397,0,0,1,1096.68,0)">
                    <rect x="200.365" y="226.239" width="103.583" height="35.811" style="fill:rgb(115,216,213);fill-rule:nonzero;"/>
                </g>
                <g transform="matrix(1.01397,0,0,1,1096.68,0)">
                    <rect x="189.654" y="203.226" width="123.166" height="11.697" style="fill:rgb(244,56,37);fill-rule:nonzero;"/>
                </g>
                <g transform="matrix(1.01397,0,0,1,1096.68,0)">
                    <rect x="189.654" y="203.226" width="125.006" height="11.697" style="fill:rgb(244,56,37);fill-rule:nonzero;"/>
                </g>
                <g transform="matrix(1.01397,0,0,1,1096.68,0)">
                    <path d="M312.82,214.923L189.654,214.923L175.891,254.144L326.582,254.144L312.82,214.923Z" style="fill:rgb(247,80,72);fill-rule:nonzero;"/>
                </g>
                <g transform="matrix(1.01397,0,0,1,1096.68,0)">
                    <path d="M199.975,214.923L189.654,214.923L175.891,254.144L186.213,254.144L199.975,214.923Z" style="fill:rgb(255,234,233);fill-rule:nonzero;"/>
                </g>
                <g transform="matrix(1.01397,0,0,1,1096.68,0)">
                    <path d="M222.912,214.923L212.591,214.923L203.416,254.144L213.737,254.144L222.912,214.923Z" style="fill:rgb(255,234,233);fill-rule:nonzero;"/>
                </g>
                <g transform="matrix(1.01397,0,0,1,1096.68,0)">
                    <path d="M245.849,214.923L235.528,214.923L230.94,254.144L241.261,254.144L245.849,214.923Z" style="fill:rgb(255,234,233);fill-rule:nonzero;"/>
                </g>
                <g transform="matrix(1.01397,0,0,1,1096.68,0)">
                    <path d="M268.786,214.923L258.465,214.923L263.052,254.144L273.374,254.144L268.786,214.923Z" style="fill:rgb(255,234,233);fill-rule:nonzero;"/>
                </g>
                <g transform="matrix(1.01397,0,0,1,1096.68,0)">
                    <path d="M291.723,214.923L281.402,214.923L290.577,254.144L300.898,254.144L291.723,214.923Z" style="fill:rgb(255,234,233);fill-rule:nonzero;"/>
                </g>
                <g transform="matrix(1.01397,0,0,1,1096.68,0)">
                    <path d="M314.66,214.923L304.339,214.923L318.102,254.144L328.423,254.144L314.66,214.923Z" style="fill:rgb(255,234,233);fill-rule:nonzero;"/>
                </g>
                <g transform="matrix(1.01397,0,0,1,1096.68,0)">
                    <path d="M181.064,260.749C178.207,260.749 175.891,258.434 175.891,255.577L175.891,254.144L186.236,254.144L186.236,255.577C186.236,258.434 183.92,260.749 181.064,260.749Z" style="fill:rgb(232,209,209);fill-rule:nonzero;"/>
                </g>
                <g transform="matrix(1.01397,0,0,1,1096.68,0)">
                    <path d="M196.81,260.749L192.842,260.749C189.193,260.749 186.236,257.792 186.236,254.144L203.416,254.144C203.416,257.792 200.458,260.749 196.81,260.749Z" style="fill:rgb(229,51,51);fill-rule:nonzero;"/>
                </g>
                <g transform="matrix(1.01397,0,0,1,1096.68,0)">
                    <path d="M208.588,260.749C205.732,260.749 203.416,258.434 203.416,255.577L203.416,254.144L213.76,254.144L213.76,255.577C213.76,258.434 211.445,260.749 208.588,260.749Z" style="fill:rgb(232,209,209);fill-rule:nonzero;"/>
                </g>
                <g transform="matrix(1.01397,0,0,1,1096.68,0)">
                    <path d="M224.335,260.749L220.366,260.749C216.718,260.749 213.76,257.792 213.76,254.144L230.94,254.144C230.94,257.792 227.983,260.749 224.335,260.749Z" style="fill:rgb(229,51,51);fill-rule:nonzero;"/>
                </g>
                <g transform="matrix(1.01397,0,0,1,1096.68,0)">
                    <path d="M236.113,260.749C233.256,260.749 230.94,258.434 230.94,255.577L230.94,254.144L241.285,254.144L241.285,255.577C241.285,258.434 238.969,260.749 236.113,260.749Z" style="fill:rgb(232,209,209);fill-rule:nonzero;"/>
                </g>
                <g transform="matrix(1.01397,0,0,1,1096.68,0)">
                    <path d="M256.446,260.749L247.89,260.749C244.242,260.749 241.285,257.792 241.285,254.144L263.052,254.144C263.052,257.792 260.095,260.749 256.446,260.749Z" style="fill:rgb(229,51,51);fill-rule:nonzero;"/>
                </g>
                <g transform="matrix(1.01397,0,0,1,1096.68,0)">
                    <path d="M268.225,260.749C265.368,260.749 263.052,258.434 263.052,255.577L263.052,254.144L273.397,254.144L273.397,255.577C273.397,258.434 271.081,260.749 268.225,260.749Z" style="fill:rgb(232,209,209);fill-rule:nonzero;"/>
                </g>
                <g transform="matrix(1.01397,0,0,1,1096.68,0)">
                    <path d="M283.971,260.749L280.003,260.749C276.354,260.749 273.397,257.792 273.397,254.144L290.577,254.144C290.577,257.792 287.619,260.749 283.971,260.749Z" style="fill:rgb(229,51,51);fill-rule:nonzero;"/>
                </g>
                <g transform="matrix(1.01397,0,0,1,1096.68,0)">
                    <path d="M295.749,260.749C292.893,260.749 290.577,258.434 290.577,255.577L290.577,254.144L300.922,254.144L300.922,255.577C300.922,258.434 298.606,260.749 295.749,260.749Z" style="fill:rgb(232,209,209);fill-rule:nonzero;"/>
                </g>
                <g transform="matrix(1.01397,0,0,1,1096.68,0)">
                    <path d="M311.496,260.749L307.527,260.749C303.879,260.749 300.922,257.792 300.922,254.144L318.102,254.144C318.102,257.792 315.144,260.749 311.496,260.749Z" style="fill:rgb(229,51,51);fill-rule:nonzero;"/>
                </g>
                <g transform="matrix(1.01397,0,0,1,1096.68,0)">
                    <path d="M323.274,260.749C320.417,260.749 318.102,258.434 318.102,255.577L318.102,254.144L328.446,254.144L328.446,255.577C328.446,258.434 326.131,260.749 323.274,260.749Z" style="fill:rgb(232,209,209);fill-rule:nonzero;"/>
                </g>
                <g transform="matrix(1.01397,0,0,1,1096.68,0)">
                    <path d="M200.365,314.958L213.76,314.958L303.948,262.05L290.577,262.05L200.365,314.958Z" style="fill:rgb(170,247,245);fill-rule:nonzero;"/>
                </g>
            </g>
        </g>
    </g>
</svg>
